<mxfile host="app.diagrams.net" modified="2023-05-14T03:09:38.951Z" agent="Mozilla/5.0 (Macintosh; Intel Mac OS X 10_15_7) AppleWebKit/537.36 (KHTML, like Gecko) Chrome/112.0.0.0 Safari/537.36" etag="KQZvnY7GpTxgUMbuYU8P" version="21.3.0" type="github">
  <diagram name="Page-1" id="BVqtDYq8SX83FrjWrb3c">
    <mxGraphModel dx="1434" dy="1801" grid="1" gridSize="10" guides="1" tooltips="1" connect="1" arrows="1" fold="1" page="1" pageScale="1" pageWidth="850" pageHeight="1100" math="0" shadow="0">
      <root>
        <mxCell id="0" />
        <mxCell id="1" parent="0" />
        <mxCell id="7FcmnYGvPtmajLsdlmQ0-1" value="" style="rounded=1;whiteSpace=wrap;html=1;fillColor=#dae8fc;strokeColor=#6c8ebf;" parent="1" vertex="1">
          <mxGeometry x="160" y="420" width="560" height="60" as="geometry" />
        </mxCell>
        <mxCell id="7FcmnYGvPtmajLsdlmQ0-2" value="Ali - Middlewares" style="rounded=0;whiteSpace=wrap;html=1;fillColor=#dae8fc;strokeColor=#6c8ebf;" parent="1" vertex="1">
          <mxGeometry x="760" y="420" width="160" height="60" as="geometry" />
        </mxCell>
        <mxCell id="7FcmnYGvPtmajLsdlmQ0-3" value="UT" style="rounded=1;whiteSpace=wrap;html=1;" parent="1" vertex="1">
          <mxGeometry x="170" y="430" width="70" height="40" as="geometry" />
        </mxCell>
        <mxCell id="7FcmnYGvPtmajLsdlmQ0-4" value="MTOP" style="rounded=1;whiteSpace=wrap;html=1;" parent="1" vertex="1">
          <mxGeometry x="250" y="430" width="70" height="40" as="geometry" />
        </mxCell>
        <mxCell id="7FcmnYGvPtmajLsdlmQ0-5" value="Orange" style="rounded=1;whiteSpace=wrap;html=1;" parent="1" vertex="1">
          <mxGeometry x="330" y="430" width="70" height="40" as="geometry" />
        </mxCell>
        <mxCell id="7FcmnYGvPtmajLsdlmQ0-6" value="DX" style="rounded=1;whiteSpace=wrap;html=1;" parent="1" vertex="1">
          <mxGeometry x="410" y="430" width="70" height="40" as="geometry" />
        </mxCell>
        <mxCell id="7FcmnYGvPtmajLsdlmQ0-7" value="LAB" style="rounded=1;whiteSpace=wrap;html=1;" parent="1" vertex="1">
          <mxGeometry x="490" y="430" width="70" height="40" as="geometry" />
        </mxCell>
        <mxCell id="7FcmnYGvPtmajLsdlmQ0-8" value="..." style="rounded=1;whiteSpace=wrap;html=1;" parent="1" vertex="1">
          <mxGeometry x="570" y="430" width="140" height="40" as="geometry" />
        </mxCell>
        <mxCell id="7FcmnYGvPtmajLsdlmQ0-9" value="" style="rounded=1;whiteSpace=wrap;html=1;fillColor=#dae8fc;strokeColor=#6c8ebf;" parent="1" vertex="1">
          <mxGeometry x="160" y="340" width="560" height="60" as="geometry" />
        </mxCell>
        <mxCell id="7FcmnYGvPtmajLsdlmQ0-10" value="Lazada - Middlewares" style="rounded=0;whiteSpace=wrap;html=1;fillColor=#dae8fc;strokeColor=#6c8ebf;" parent="1" vertex="1">
          <mxGeometry x="760" y="340" width="160" height="60" as="geometry" />
        </mxCell>
        <mxCell id="7FcmnYGvPtmajLsdlmQ0-13" value="Chameleon" style="rounded=1;whiteSpace=wrap;html=1;" parent="1" vertex="1">
          <mxGeometry x="170" y="350" width="100" height="40" as="geometry" />
        </mxCell>
        <mxCell id="7FcmnYGvPtmajLsdlmQ0-14" value="UserTracker" style="rounded=1;whiteSpace=wrap;html=1;" parent="1" vertex="1">
          <mxGeometry x="280" y="350" width="100" height="40" as="geometry" />
        </mxCell>
        <mxCell id="7FcmnYGvPtmajLsdlmQ0-15" value="Base - UI" style="rounded=1;whiteSpace=wrap;html=1;" parent="1" vertex="1">
          <mxGeometry x="390" y="350" width="140" height="40" as="geometry" />
        </mxCell>
        <mxCell id="7FcmnYGvPtmajLsdlmQ0-16" value="..." style="rounded=1;whiteSpace=wrap;html=1;" parent="1" vertex="1">
          <mxGeometry x="540" y="350" width="170" height="40" as="geometry" />
        </mxCell>
        <mxCell id="7FcmnYGvPtmajLsdlmQ0-17" value="" style="rounded=1;whiteSpace=wrap;html=1;fillColor=#d5e8d4;strokeColor=#82b366;" parent="1" vertex="1">
          <mxGeometry x="160" y="40" width="560" height="280" as="geometry" />
        </mxCell>
        <mxCell id="7FcmnYGvPtmajLsdlmQ0-18" value="SilkRoad" style="rounded=0;whiteSpace=wrap;html=1;fillColor=#d5e8d4;strokeColor=#82b366;" parent="1" vertex="1">
          <mxGeometry x="760" y="40" width="160" height="280" as="geometry" />
        </mxCell>
        <mxCell id="7FcmnYGvPtmajLsdlmQ0-22" value="User Tracking" style="rounded=1;whiteSpace=wrap;html=1;" parent="1" vertex="1">
          <mxGeometry x="630" y="80" width="80" height="40" as="geometry" />
        </mxCell>
        <mxCell id="7FcmnYGvPtmajLsdlmQ0-24" value="..." style="rounded=1;whiteSpace=wrap;html=1;" parent="1" vertex="1">
          <mxGeometry x="630" y="230" width="80" height="40" as="geometry" />
        </mxCell>
        <mxCell id="7FcmnYGvPtmajLsdlmQ0-25" value="Business" style="rounded=0;whiteSpace=wrap;html=1;fillColor=#ffe6cc;strokeColor=#d79b00;" parent="1" vertex="1">
          <mxGeometry x="760" y="-40" width="160" height="60" as="geometry" />
        </mxCell>
        <mxCell id="7FcmnYGvPtmajLsdlmQ0-26" value="Home Page" style="rounded=1;whiteSpace=wrap;html=1;fillColor=#ffe6cc;strokeColor=#d79b00;" parent="1" vertex="1">
          <mxGeometry x="160" y="-40" width="110" height="60" as="geometry" />
        </mxCell>
        <mxCell id="V1AO98D3mTCkdXZ4XstW-1" value="PDP" style="rounded=1;whiteSpace=wrap;html=1;fillColor=#ffe6cc;strokeColor=#d79b00;" vertex="1" parent="1">
          <mxGeometry x="280" y="-40" width="110" height="60" as="geometry" />
        </mxCell>
        <mxCell id="V1AO98D3mTCkdXZ4XstW-2" value="Trade" style="rounded=1;whiteSpace=wrap;html=1;fillColor=#ffe6cc;strokeColor=#d79b00;" vertex="1" parent="1">
          <mxGeometry x="400" y="-40" width="110" height="60" as="geometry" />
        </mxCell>
        <mxCell id="V1AO98D3mTCkdXZ4XstW-3" value="Payment" style="rounded=1;whiteSpace=wrap;html=1;fillColor=#ffe6cc;strokeColor=#d79b00;" vertex="1" parent="1">
          <mxGeometry x="520" y="-40" width="110" height="60" as="geometry" />
        </mxCell>
        <mxCell id="V1AO98D3mTCkdXZ4XstW-4" value="..." style="rounded=1;whiteSpace=wrap;html=1;fillColor=#ffe6cc;strokeColor=#d79b00;" vertex="1" parent="1">
          <mxGeometry x="640" y="-40" width="80" height="60" as="geometry" />
        </mxCell>
        <mxCell id="V1AO98D3mTCkdXZ4XstW-10" value="" style="group" vertex="1" connectable="0" parent="1">
          <mxGeometry x="400" y="230" width="215" height="80" as="geometry" />
        </mxCell>
        <mxCell id="7FcmnYGvPtmajLsdlmQ0-21" value="" style="rounded=1;whiteSpace=wrap;html=1;" parent="V1AO98D3mTCkdXZ4XstW-10" vertex="1">
          <mxGeometry width="215" height="80" as="geometry" />
        </mxCell>
        <mxCell id="V1AO98D3mTCkdXZ4XstW-7" value="Network" style="text;html=1;strokeColor=none;fillColor=none;align=center;verticalAlign=middle;whiteSpace=wrap;rounded=0;" vertex="1" parent="V1AO98D3mTCkdXZ4XstW-10">
          <mxGeometry width="95" height="30" as="geometry" />
        </mxCell>
        <mxCell id="V1AO98D3mTCkdXZ4XstW-8" value="Base Mtop Service" style="rounded=1;whiteSpace=wrap;html=1;" vertex="1" parent="V1AO98D3mTCkdXZ4XstW-10">
          <mxGeometry x="15" y="30" width="120" height="40" as="geometry" />
        </mxCell>
        <mxCell id="V1AO98D3mTCkdXZ4XstW-9" value="..." style="rounded=1;whiteSpace=wrap;html=1;" vertex="1" parent="V1AO98D3mTCkdXZ4XstW-10">
          <mxGeometry x="145" y="30" width="60" height="40" as="geometry" />
        </mxCell>
        <mxCell id="V1AO98D3mTCkdXZ4XstW-11" value="" style="group" vertex="1" connectable="0" parent="1">
          <mxGeometry x="175" y="230" width="215" height="80" as="geometry" />
        </mxCell>
        <mxCell id="7FcmnYGvPtmajLsdlmQ0-19" value="" style="rounded=1;whiteSpace=wrap;html=1;" parent="V1AO98D3mTCkdXZ4XstW-11" vertex="1">
          <mxGeometry width="215" height="80" as="geometry" />
        </mxCell>
        <mxCell id="7FcmnYGvPtmajLsdlmQ0-20" value="Ultron Data Parser" style="rounded=1;whiteSpace=wrap;html=1;" parent="V1AO98D3mTCkdXZ4XstW-11" vertex="1">
          <mxGeometry x="15" y="30" width="120" height="40" as="geometry" />
        </mxCell>
        <mxCell id="V1AO98D3mTCkdXZ4XstW-5" value="Data Parser" style="text;html=1;strokeColor=none;fillColor=none;align=center;verticalAlign=middle;whiteSpace=wrap;rounded=0;" vertex="1" parent="V1AO98D3mTCkdXZ4XstW-11">
          <mxGeometry width="95" height="30" as="geometry" />
        </mxCell>
        <mxCell id="V1AO98D3mTCkdXZ4XstW-6" value="..." style="rounded=1;whiteSpace=wrap;html=1;" vertex="1" parent="V1AO98D3mTCkdXZ4XstW-11">
          <mxGeometry x="145" y="30" width="60" height="40" as="geometry" />
        </mxCell>
        <mxCell id="V1AO98D3mTCkdXZ4XstW-20" value="" style="group" vertex="1" connectable="0" parent="1">
          <mxGeometry x="175" y="140" width="440" height="80" as="geometry" />
        </mxCell>
        <mxCell id="V1AO98D3mTCkdXZ4XstW-14" value="" style="rounded=1;whiteSpace=wrap;html=1;" vertex="1" parent="V1AO98D3mTCkdXZ4XstW-20">
          <mxGeometry width="440" height="80" as="geometry" />
        </mxCell>
        <mxCell id="V1AO98D3mTCkdXZ4XstW-15" value="Page Container" style="rounded=1;whiteSpace=wrap;html=1;" vertex="1" parent="V1AO98D3mTCkdXZ4XstW-20">
          <mxGeometry x="15" y="30" width="105" height="40" as="geometry" />
        </mxCell>
        <mxCell id="V1AO98D3mTCkdXZ4XstW-16" value="Render" style="text;html=1;strokeColor=none;fillColor=none;align=center;verticalAlign=middle;whiteSpace=wrap;rounded=0;" vertex="1" parent="V1AO98D3mTCkdXZ4XstW-20">
          <mxGeometry width="95" height="30" as="geometry" />
        </mxCell>
        <mxCell id="V1AO98D3mTCkdXZ4XstW-17" value="..." style="rounded=1;whiteSpace=wrap;html=1;" vertex="1" parent="V1AO98D3mTCkdXZ4XstW-20">
          <mxGeometry x="360" y="30" width="70" height="40" as="geometry" />
        </mxCell>
        <mxCell id="V1AO98D3mTCkdXZ4XstW-18" value="Container View" style="rounded=1;whiteSpace=wrap;html=1;" vertex="1" parent="V1AO98D3mTCkdXZ4XstW-20">
          <mxGeometry x="129" y="30" width="105" height="40" as="geometry" />
        </mxCell>
        <mxCell id="V1AO98D3mTCkdXZ4XstW-19" value="Item View (Cells)" style="rounded=1;whiteSpace=wrap;html=1;" vertex="1" parent="V1AO98D3mTCkdXZ4XstW-20">
          <mxGeometry x="245" y="30" width="105" height="40" as="geometry" />
        </mxCell>
        <mxCell id="V1AO98D3mTCkdXZ4XstW-22" value="" style="rounded=1;whiteSpace=wrap;html=1;" vertex="1" parent="1">
          <mxGeometry x="175" y="50" width="440" height="80" as="geometry" />
        </mxCell>
        <mxCell id="V1AO98D3mTCkdXZ4XstW-23" value="Registers" style="rounded=1;whiteSpace=wrap;html=1;" vertex="1" parent="1">
          <mxGeometry x="190" y="80" width="100" height="40" as="geometry" />
        </mxCell>
        <mxCell id="V1AO98D3mTCkdXZ4XstW-24" value="Interface" style="text;html=1;strokeColor=none;fillColor=none;align=center;verticalAlign=middle;whiteSpace=wrap;rounded=0;" vertex="1" parent="1">
          <mxGeometry x="177.5" y="50" width="95" height="30" as="geometry" />
        </mxCell>
        <mxCell id="V1AO98D3mTCkdXZ4XstW-25" value="..." style="rounded=1;whiteSpace=wrap;html=1;" vertex="1" parent="1">
          <mxGeometry x="540" y="80" width="60" height="40" as="geometry" />
        </mxCell>
        <mxCell id="V1AO98D3mTCkdXZ4XstW-26" value="Triggers" style="rounded=1;whiteSpace=wrap;html=1;" vertex="1" parent="1">
          <mxGeometry x="300" y="80" width="100" height="40" as="geometry" />
        </mxCell>
        <mxCell id="V1AO98D3mTCkdXZ4XstW-27" value="Lifecycle Handlers" style="rounded=1;whiteSpace=wrap;html=1;" vertex="1" parent="1">
          <mxGeometry x="410" y="80" width="120" height="40" as="geometry" />
        </mxCell>
        <mxCell id="V1AO98D3mTCkdXZ4XstW-28" value="Performance Monitor" style="rounded=1;whiteSpace=wrap;html=1;" vertex="1" parent="1">
          <mxGeometry x="630" y="130" width="80" height="40" as="geometry" />
        </mxCell>
        <mxCell id="V1AO98D3mTCkdXZ4XstW-29" value="General UI Components" style="rounded=1;whiteSpace=wrap;html=1;" vertex="1" parent="1">
          <mxGeometry x="630" y="180" width="80" height="40" as="geometry" />
        </mxCell>
      </root>
    </mxGraphModel>
  </diagram>
</mxfile>
